# Blender 4.4.3
# www.blender.org
mtllib desk.mtl
o Cube
v 1.000000 14.772202 -1.000000
v 1.000000 12.772202 -1.000000
v 1.000000 14.772202 1.000000
v 1.000000 12.772202 1.000000
v -1.000000 14.772202 -1.000000
v -1.000000 12.772202 -1.000000
v -1.000000 14.772202 1.000000
v -1.000000 12.772202 1.000000
v -1.000000 15.917094 -1.000000
v 13.627625 14.772202 -1.000000
v 13.627625 12.772202 -1.000000
v 13.627625 14.772202 1.000000
v 13.627625 12.772202 1.000000
v -1.000000 12.772202 25.437090
v -1.000000 14.772202 25.437090
v 1.000000 14.772202 25.437090
v 1.000000 12.772202 25.437090
v 13.627625 14.772202 25.437090
v 13.627625 12.772202 25.437090
v -1.000000 5.092378 -1.000000
v -1.000000 5.092378 1.000000
v 1.000000 5.092378 -1.000000
v 1.000000 5.092378 1.000000
v 13.627625 5.092378 1.000000
v 13.627625 5.092378 -1.000000
v -1.000000 5.092378 25.437090
v 1.000000 5.092378 25.437090
v 11.450130 5.560921 24.652178
v 11.450130 7.560921 24.652178
v 11.450130 5.560921 22.652178
v 11.450130 7.560921 22.652178
v 13.450130 5.560921 24.652178
v 13.450130 7.560921 24.652178
v 13.450130 5.560921 22.652178
v 13.450130 7.560921 22.652178
v 13.627625 12.772202 1.000000
v 13.627625 12.772202 25.437090
v 1.000000 12.772202 1.000000
v 1.000000 12.772202 25.437090
v 11.450130 7.560921 24.652178
v 11.450130 7.560921 22.652178
v 13.450130 7.560921 22.652178
v 13.450130 7.560921 24.652178
v 11.450130 5.560921 22.652178
v 11.450130 5.560921 24.652178
v 11.450130 7.560921 24.652178
v 11.450130 7.560921 22.652178
v 13.450130 5.560921 22.652178
v 13.450130 7.560921 22.652178
v 13.450130 7.560921 24.652178
v 13.450130 5.560921 24.652178
v 11.450130 7.560921 24.652178
v 11.450130 7.560921 22.652178
v 13.450130 7.560921 22.652178
v 13.450130 7.560921 24.652178
v 11.450130 12.825345 24.652178
v 11.450130 12.825345 22.652178
v 13.450130 12.825345 22.652178
v 13.450130 12.825345 24.652178
v 2.620795 17.707348 13.854995
v 9.734246 15.470955 11.511523
v 3.042563 16.159214 13.844236
v 9.207825 16.248816 17.013126
v 2.657499 17.728512 12.250936
v 3.290152 15.406315 12.234771
v 3.440207 14.699634 13.834077
v 9.674676 14.829144 13.978445
v 3.501036 14.632249 12.229383
v 8.229752 16.003599 13.960878
v 8.084899 20.179253 13.954826
v 8.412537 19.167980 17.033445
v 7.797503 17.443226 15.483299
v 2.794975 16.912117 15.453614
v 8.014893 20.627560 17.043606
v 8.550956 19.247799 10.984306
v 2.610315 17.598843 15.366657
v 8.043970 20.042908 16.335764
v 8.147087 19.986053 11.465744
v 7.469069 18.942719 12.468889
v 7.832108 17.463181 13.971039
v 10.802368 23.197336 13.726143
v 7.399859 18.902809 15.493460
v 2.679524 17.638752 12.342088
v 10.802368 23.197336 19.573727
v 10.802368 23.197336 19.573727
v 9.605469 14.789234 17.002966
v 2.868384 16.954447 12.245547
v 10.802368 23.197336 13.726143
v 8.084101 20.667469 14.019086
v 3.005860 16.138050 15.448226
v 8.948600 17.788216 10.974146
v 2.644919 17.618797 13.854398
v 2.639147 17.717930 13.052966
v 7.434464 18.922762 13.981199
v 8.264357 16.023556 12.448569
v 10.802368 23.197336 16.649935
v 7.866713 17.483137 12.458729
v 10.802368 23.197336 16.649935
v 3.077168 16.179169 12.331926
v 9.709282 14.849098 12.466135
v 9.672058 15.664155 14.000603
v 8.118707 20.687424 12.506776
v 8.941578 17.555107 11.509686
v 3.482684 14.621666 13.031413
v 3.445980 14.600500 14.635446
v 10.802368 23.197336 18.111832
v 3.216744 15.363984 15.442838
v 10.802368 23.197336 18.111832
v 8.810180 17.708397 17.023285
v 8.838460 17.611961 16.379705
v 9.640073 14.809189 15.490705
v 8.049497 20.647514 15.531346
v 10.802368 23.197336 15.188039
v 9.631129 15.527809 16.381544
v 10.802368 23.197336 15.188039
v 3.079268 16.180380 12.240159
v 8.153312 20.707378 10.994467
v 3.405602 14.679679 15.346337
v 9.743888 14.869054 10.953825
v 3.007959 16.139259 15.356497
v 2.584091 17.686182 15.459002
v 3.427628 14.589918 15.437449
v 2.602443 17.696764 14.657000
v 3.464331 14.611083 13.833442
v 9.346243 16.328636 10.963985
v 3.474812 14.719588 12.321767
v 8.195148 15.983645 15.473139
vn -0.0000 -1.0000 -0.0000
vn -0.0000 1.0000 -0.0000
vn 1.0000 -0.0000 -0.0000
vn -0.0000 -0.0000 1.0000
vn -1.0000 -0.0000 -0.0000
vn -0.0000 -0.0000 -1.0000
vn 0.9648 0.2628 0.0030
vn 0.6259 0.1758 -0.7599
vn -0.9646 -0.2626 -0.0255
vn -0.1982 -0.0472 -0.9790
vn -0.2428 -0.0729 0.9673
vn 0.8881 -0.4594 0.0143
vn -0.4764 0.8792 0.0007
vn 0.0354 -0.9993 -0.0124
vn 0.9295 0.3534 -0.1051
vn 0.6457 0.1707 0.7443
vn 0.6348 0.1939 -0.7479
vn 0.8626 -0.5023 0.0605
vn 0.5821 0.2221 0.7822
vn 0.9646 0.2626 0.0255
vn 0.9127 0.3473 0.2152
vn 0.8931 0.2407 0.3801
vn 0.9495 0.2599 -0.1757
vn 0.9997 -0.0051 0.0228
vn 0.9996 -0.0157 0.0227
vn 0.2675 0.9617 0.0597
vn 0.9997 0.0149 0.0180
vn 0.9997 0.0025 0.0229
vn 0.2286 0.9734 0.0181
vn 0.9997 0.0038 0.0247
vn 0.9574 0.2600 0.1257
vn 0.9449 0.3067 -0.1145
vn 0.5701 0.2161 -0.7927
vn 0.8746 -0.4847 -0.0127
vn 0.6756 0.2334 0.6994
vn 0.9997 0.0064 0.0230
vn 0.9995 0.0217 0.0232
vn 0.9313 0.2555 -0.2597
vn 0.9114 0.2460 0.3300
vn 0.9997 -0.0014 0.0229
vn 0.9998 -0.0083 0.0167
vn 0.9997 -0.0016 0.0251
vn 0.3142 0.9471 -0.0657
vn 0.9058 0.3014 0.2977
vt 0.235523 0.455787
vt 0.272826 0.493090
vt 0.235523 0.493090
vt 0.375000 0.750000
vt 0.684900 0.455962
vt 0.721900 0.493116
vt 0.684900 0.493250
vt 0.542825 0.456477
vt 0.310113 0.530327
vt 0.272826 0.764612
vt 0.272826 0.530220
vt 0.272826 0.493096
vt 0.310113 0.493204
vt 0.758557 0.493250
vt 0.721900 0.455828
vt 0.758557 0.455953
vt 0.899318 0.493728
vt 0.000000 0.455787
vt 0.721900 0.948838
vt 0.721900 0.493125
vt 0.919115 0.000070
vt 0.956410 0.037156
vt 0.919115 0.037226
vt 0.919115 0.271824
vt 0.684900 0.948855
vt 0.235523 0.000000
vt 0.000000 0.493090
vt 0.140761 0.949280
vt 0.000000 0.948802
vt 0.272826 0.000000
vt 0.272826 0.455787
vt 0.542825 0.037303
vt 0.505909 0.000007
vt 0.542825 0.000000
vt 0.505909 0.037309
vt 0.272826 0.000049
vt 0.505909 0.493096
vt 0.416034 0.999731
vt 0.272826 0.765402
vt 0.416034 0.765134
vt 0.453290 0.765134
vt 0.310113 0.764720
vt 0.775907 0.000338
vt 0.453290 0.530741
vt 0.542825 0.493765
vt 0.375000 0.500000
vt 0.125000 0.500000
vt 0.125000 0.750000
vt 0.833743 0.309218
vt 0.796743 0.346640
vt 0.796743 0.309352
vt 0.625000 0.500000
vt 0.625000 0.250000
vt 0.813210 0.398379
vt 0.775907 0.361076
vt 0.813210 0.361076
vt 0.625000 0.000000
vt 0.775908 -0.000000
vt 0.542825 0.455828
vt 0.542825 0.000042
vt 0.625000 1.000000
vt 0.625000 0.750000
vt 0.813064 0.435676
vt 0.849721 0.398504
vt 0.849721 0.435801
vt 0.775907 0.398379
vt 0.813064 0.435744
vt 0.775907 0.435674
vt 0.796743 0.271931
vt 0.833867 0.309111
vt 0.796743 0.309218
vt 0.453290 0.591350
vt 0.490414 0.493096
vt 0.490414 0.591243
vt 0.875000 0.500000
vt 0.490414 0.590487
vt 0.527701 0.493231
vt 0.527701 0.590622
vt 0.490414 0.687239
vt 0.527710 0.590622
vt 0.527710 0.687113
vt 0.194682 0.823743
vt 0.224603 0.835746
vt 0.196656 0.835731
vt 0.795658 0.319505
vt 0.775908 0.344372
vt 0.777889 0.316225
vt 0.482960 0.747102
vt 0.497877 0.745399
vt 0.497877 0.747110
vt 0.182278 0.608272
vt 0.197193 0.493090
vt 0.197242 0.608272
vt 0.526004 0.717199
vt 0.526004 0.745414
vt 0.497877 0.688968
vt 0.482960 0.687248
vt 0.497877 0.687256
vt 0.197193 0.608272
vt 0.182301 0.722837
vt 0.168977 0.608272
vt 0.243505 0.778257
vt 0.221815 0.807608
vt 0.221815 0.779393
vt 0.469750 0.717168
vt 0.497877 0.717184
vt 0.524845 0.791296
vt 0.416034 0.793349
vt 0.416034 0.765134
vt 0.375000 0.250000
vt 0.625000 0.312501
vt 0.375000 0.312501
vt 0.168708 0.722852
vt 0.192462 0.732915
vt 0.152024 0.733086
vt 0.221815 0.751177
vt 0.193867 0.751162
vt 0.779870 0.288079
vt 0.796743 0.271824
vt 0.416034 0.849780
vt 0.524845 0.851150
vt 0.416034 0.877994
vt 0.239311 0.731871
vt 0.252550 0.728567
vt 0.272614 0.750919
vt 0.252550 0.770155
vt 0.625000 0.437501
vt 0.375000 0.437501
vt 0.225408 0.608272
vt 0.227192 0.722837
vt 0.212229 0.722837
vt 0.165920 0.751147
vt 0.193867 0.779378
vt 0.165920 0.779363
vt 0.193867 0.807593
vt 0.165920 0.807578
vt 0.468044 0.702203
vt 0.469750 0.688952
vt 0.625000 0.562499
vt 0.687500 0.624998
vt 0.625000 0.624998
vt 0.168708 0.835716
vt 0.154244 0.823915
vt 0.212206 0.608272
vt 0.225409 0.493090
vt 0.252550 0.722898
vt 0.224603 0.722883
vt 0.167337 0.722837
vt 0.140761 0.608272
vt 0.241532 0.822700
vt 0.252550 0.835761
vt 0.140761 0.722837
vt 0.140761 0.751054
vt 0.140761 0.835701
vt 0.140761 0.807486
vt 0.227170 0.608272
vt 0.253624 0.493090
vt 0.526004 0.688983
vt 0.625000 0.687499
vt 0.512794 0.747118
vt 0.416034 0.821565
vt 0.524845 0.836187
vt 0.625000 0.375002
vt 0.375000 0.375002
vt 0.453290 0.637772
vt 0.479014 0.665864
vt 0.453321 0.682197
vt 0.252550 0.807546
vt 0.468044 0.747094
vt 0.469750 0.745383
vt 0.524845 0.806260
vt 0.527710 0.747127
vt 0.527710 0.732163
vt 0.156217 0.779471
vt 0.140761 0.779270
vt 0.167314 0.608272
vt 0.168977 0.493090
vt 0.527710 0.687272
vt 0.527710 0.702236
vt 0.479014 0.609434
vt 0.479014 0.637649
vt 0.197265 0.722837
vt 0.468044 0.687239
vt 0.252550 0.751114
vt 0.196656 0.722867
vt 0.512794 0.687264
vt 0.468044 0.732130
vt 0.721900 0.455828
vt 0.899318 0.456431
vt 0.000000 0.493090
vt 0.758557 0.948963
vt 0.956410 0.000000
vt 0.956410 0.271754
vt 0.721899 0.948721
vt 0.000000 0.000000
vt 0.140761 0.493568
vt 0.272826 0.037352
vt 0.542825 0.493089
vt 0.272826 1.000000
vt 0.775907 0.037495
vt 0.453290 0.493618
vt 0.542825 0.949370
vt 0.833743 0.346506
vt 0.775907 0.398379
vt 0.775908 0.455786
vt 0.813064 0.398379
vt 0.813064 0.398449
vt 0.833867 0.271824
vt 0.453290 0.493203
vt 0.875000 0.750000
vt 0.490414 0.493096
vt 0.490414 0.590749
vt 0.796743 0.361076
vt 0.269861 0.722837
vt 0.253624 0.608272
vt 0.468044 0.717167
vt 0.687500 0.562499
vt 0.687500 0.687499
vt 0.524845 0.821223
vt 0.252550 0.779330
vt 0.140761 0.493090
vt 0.453799 0.591350
s 0
usemtl Material
f 3/1/1 5/2/1 1/3/1
f 4/4/2 39/4/2 38/4/2
f 6/5/3 7/6/3 8/7/3
f 8/7/3 20/8/3 6/5/3
f 2/9/4 10/10/4 1/11/4
f 2/9/4 5/12/4 6/13/4
f 13/14/5 10/15/5 11/16/5
f 11/16/5 24/17/5 13/14/5
f 1/3/1 12/18/1 3/1/1
f 13/14/5 18/19/5 12/20/5
f 14/21/6 16/22/6 17/23/6
f 16/22/6 19/24/6 17/23/6
f 7/6/3 14/25/3 8/7/3
f 12/18/1 16/26/1 3/1/1
f 4/27/5 27/28/5 17/29/5
f 3/1/1 15/30/1 7/31/1
f 21/32/2 22/33/2 20/34/2
f 23/35/2 25/36/2 22/33/2
f 21/32/2 27/37/2 23/35/2
f 13/38/6 23/39/6 4/40/6
f 2/9/4 25/41/4 11/42/4
f 17/23/6 26/43/6 14/21/6
f 6/13/4 22/44/4 2/9/4
f 14/25/3 21/45/3 8/7/3
f 34/46/2 44/47/2 48/46/2
f 30/47/2 45/48/2 44/47/2
f 35/49/3 32/50/3 34/51/3
f 42/52/2 53/53/2 54/52/2
f 34/54/1 28/55/1 30/56/1
f 31/53/2 40/57/2 41/53/2
f 38/58/2 37/59/2 36/60/2
f 28/48/2 51/4/2 45/48/2
f 29/61/2 43/62/2 40/61/2
f 19/4/2 36/4/2 37/4/2
f 35/52/2 41/53/2 42/52/2
f 13/4/2 38/4/2 36/4/2
f 17/4/2 37/4/2 39/4/2
f 33/62/2 42/52/2 43/62/2
f 46/63/5 44/64/5 45/65/5
f 47/66/6 48/67/6 44/68/6
f 50/69/4 45/70/4 51/71/4
f 55/72/4 56/73/4 52/74/4
f 33/62/2 46/61/2 50/62/2
f 43/62/2 54/52/2 55/62/2
f 31/53/2 49/52/2 47/53/2
f 40/61/2 55/62/2 52/61/2
f 29/57/2 47/53/2 46/57/2
f 32/4/2 50/62/2 51/4/2
f 41/53/2 52/57/2 53/53/2
f 35/52/2 48/46/2 49/52/2
f 57/75/2 59/62/2 58/52/2
f 53/53/6 58/52/6 54/52/6
f 54/76/3 59/77/3 55/78/3
f 52/79/5 57/80/5 53/81/5
f 110/82/7 71/83/7 109/84/7
f 110/85/8 127/86/8 72/87/8
f 73/88/9 120/89/9 90/90/9
f 87/91/10 91/92/10 116/93/10
f 120/89/9 66/94/9 118/95/9
f 99/96/9 87/97/9 116/98/9
f 109/99/11 107/100/11 63/101/11
f 70/102/12 82/103/12 94/104/12
f 120/89/9 92/105/9 62/106/9
f 64/107/13 102/108/13 117/109/13
f 68/110/14 100/111/14 104/112/14
f 125/113/15 103/114/15 61/115/15
f 103/114/16 79/116/16 97/117/16
f 110/85/17 82/118/17 77/119/17
f 112/120/13 121/121/13 74/122/13
f 70/102/18 79/116/18 78/123/18
f 103/124/19 95/125/19 61/126/19
f 111/127/14 122/46/14 105/128/14
f 71/129/11 121/130/11 73/131/11
f 95/132/20 80/133/20 69/134/20
f 69/134/20 72/135/20 127/136/20
f 79/116/20 80/133/20 97/117/20
f 94/104/20 72/135/20 80/133/20
f 92/105/9 93/137/9 83/138/9
f 105/139/9 66/140/9 124/141/9
f 110/82/21 63/142/21 114/143/21
f 65/144/10 91/92/10 125/145/10
f 117/146/22 78/123/22 75/147/22
f 63/101/11 122/148/11 86/149/11
f 77/150/23 74/151/23 71/83/23
f 119/152/24 61/115/24 100/153/24
f 114/143/25 86/154/25 111/155/25
f 68/156/10 125/145/10 119/157/10
f 62/106/9 126/158/9 66/94/9
f 66/140/9 104/159/9 124/141/9
f 107/160/9 120/89/9 118/95/9
f 89/161/13 123/162/13 112/120/13
f 67/163/14 105/128/14 124/164/14
f 101/165/26 127/166/26 114/167/26
f 70/102/27 112/168/27 77/150/27
f 121/169/9 76/170/9 73/88/9
f 93/171/13 89/161/13 102/108/13
f 104/112/14 67/163/14 124/164/14
f 122/172/9 118/95/9 105/173/9
f 101/174/28 111/155/28 67/175/28
f 100/153/28 101/174/28 67/175/28
f 64/176/10 75/177/10 87/91/10
f 126/158/9 68/178/9 104/179/9
f 101/165/29 95/180/29 69/181/29
f 109/99/11 73/131/11 90/182/11
f 62/106/9 83/138/9 99/96/9
f 83/138/9 64/183/9 87/97/9
f 102/184/30 70/102/30 78/123/30
f 75/147/31 103/114/31 91/185/31
f 99/96/9 65/186/9 126/158/9
f 123/187/9 92/105/9 76/170/9
f 3/1/1 7/31/1 5/2/1
f 4/4/2 17/4/2 39/4/2
f 6/5/3 5/188/3 7/6/3
f 8/7/3 21/45/3 20/8/3
f 2/9/4 11/42/4 10/10/4
f 2/9/4 1/11/4 5/12/4
f 13/14/5 12/20/5 10/15/5
f 11/16/5 25/189/5 24/17/5
f 1/3/1 10/190/1 12/18/1
f 13/14/5 19/191/5 18/19/5
f 14/21/6 15/192/6 16/22/6
f 16/22/6 18/193/6 19/24/6
f 7/6/3 15/194/3 14/25/3
f 12/18/1 18/195/1 16/26/1
f 4/27/5 23/196/5 27/28/5
f 3/1/1 16/26/1 15/30/1
f 21/32/2 23/35/2 22/33/2
f 23/35/2 24/197/2 25/36/2
f 21/32/2 26/198/2 27/37/2
f 13/38/6 24/199/6 23/39/6
f 2/9/4 22/44/4 25/41/4
f 17/23/6 27/200/6 26/43/6
f 6/13/4 20/201/4 22/44/4
f 14/25/3 26/202/3 21/45/3
f 34/46/2 30/47/2 44/47/2
f 30/47/2 28/48/2 45/48/2
f 35/49/3 33/203/3 32/50/3
f 42/52/2 41/53/2 53/53/2
f 34/54/1 32/204/1 28/55/1
f 31/53/2 29/57/2 40/57/2
f 38/58/2 39/205/2 37/59/2
f 28/48/2 32/4/2 51/4/2
f 29/61/2 33/62/2 43/62/2
f 19/4/2 13/4/2 36/4/2
f 35/52/2 31/53/2 41/53/2
f 13/4/2 4/4/2 38/4/2
f 17/4/2 19/4/2 37/4/2
f 33/62/2 35/52/2 42/52/2
f 46/63/5 47/206/5 44/64/5
f 47/66/6 49/207/6 48/67/6
f 50/69/4 46/208/4 45/70/4
f 55/72/4 59/209/4 56/73/4
f 33/62/2 29/61/2 46/61/2
f 43/62/2 42/52/2 54/52/2
f 31/53/2 35/52/2 49/52/2
f 40/61/2 43/62/2 55/62/2
f 29/57/2 31/53/2 47/53/2
f 32/4/2 33/62/2 50/62/2
f 41/53/2 40/57/2 52/57/2
f 35/52/2 34/46/2 48/46/2
f 57/75/2 56/210/2 59/62/2
f 53/53/6 57/53/6 58/52/6
f 54/76/3 58/211/3 59/77/3
f 52/79/5 56/212/5 57/80/5
f 110/82/32 77/150/32 71/83/32
f 110/85/33 114/213/33 127/86/33
f 73/88/9 76/170/9 120/89/9
f 87/91/10 75/177/10 91/92/10
f 120/89/9 62/106/9 66/94/9
f 99/96/9 83/138/9 87/97/9
f 109/99/11 90/182/11 107/100/11
f 70/102/34 77/150/34 82/103/34
f 120/89/9 76/170/9 92/105/9
f 64/107/13 93/171/13 102/108/13
f 68/110/14 119/53/14 100/111/14
f 125/113/31 91/185/31 103/114/31
f 103/114/35 78/123/35 79/116/35
f 110/85/8 72/87/8 82/118/8
f 112/120/13 123/162/13 121/121/13
f 70/102/12 94/104/12 79/116/12
f 103/124/16 97/214/16 95/125/16
f 111/127/14 86/52/14 122/46/14
f 71/129/11 74/215/11 121/130/11
f 95/132/20 97/117/20 80/133/20
f 69/134/20 80/133/20 72/135/20
f 79/116/20 94/104/20 80/133/20
f 94/104/20 82/103/20 72/135/20
f 92/105/9 60/216/9 93/137/9
f 105/139/9 118/217/9 66/140/9
f 110/82/7 109/84/7 63/142/7
f 65/144/10 116/93/10 91/92/10
f 117/146/36 102/184/36 78/123/36
f 63/101/11 107/100/11 122/148/11
f 77/150/37 112/168/37 74/151/37
f 119/152/38 125/113/38 61/115/38
f 114/143/39 63/142/39 86/154/39
f 68/156/10 65/144/10 125/145/10
f 62/106/9 99/96/9 126/158/9
f 66/140/9 126/218/9 104/159/9
f 107/160/9 90/90/9 120/89/9
f 89/161/13 60/219/13 123/162/13
f 67/163/14 111/127/14 105/128/14
f 101/165/29 69/181/29 127/166/29
f 70/102/40 89/220/40 112/168/40
f 121/169/9 123/187/9 76/170/9
f 93/171/13 60/219/13 89/161/13
f 104/112/14 100/111/14 67/163/14
f 122/172/9 107/160/9 118/95/9
f 101/174/41 114/143/41 111/155/41
f 100/153/42 61/115/42 101/174/42
f 64/176/10 117/221/10 75/177/10
f 126/158/9 65/186/9 68/178/9
f 101/165/43 61/222/43 95/180/43
f 109/99/11 71/129/11 73/131/11
f 62/106/9 92/105/9 83/138/9
f 83/138/9 93/137/9 64/183/9
f 102/184/40 89/220/40 70/102/40
f 75/147/44 78/123/44 103/114/44
f 99/96/9 116/98/9 65/186/9
f 123/187/9 60/216/9 92/105/9
l 84 85
l 88 81
l 98 96
l 108 106
l 115 113
